<svg width="100" height="100" viewBox="0 0 100 100" fill="none" xmlns="http://www.w3.org/2000/svg">
<rect width="100" height="100" rx="10" fill="#155DFC"/>
<path d="M33.65 68.6C30.05 68.6 26.8667 67.8333 24.1 66.3C21.3333 64.7333 19.1667 62.6 17.6 59.9C16.0333 57.1667 15.25 54.0333 15.25 50.5C15.25 46.9667 16.0333 43.85 17.6 41.15C19.1667 38.4167 21.3333 36.2833 24.1 34.75C26.8667 33.1833 30.05 32.4 33.65 32.4C36.0167 32.4 38.1 32.7333 39.9 33.4C41.7333 34.0667 43.3167 34.9833 44.65 36.15C45.9833 37.2833 47.1167 38.6 48.05 40.1L40.35 44.65C39.8833 43.9167 39.2833 43.2667 38.55 42.7C37.85 42.1333 37.0667 41.7 36.2 41.4C35.3667 41.0667 34.5167 40.9 33.65 40.9C31.9167 40.9 30.3833 41.3167 29.05 42.15C27.7167 42.95 26.6667 44.0667 25.9 45.5C25.1333 46.9333 24.75 48.6 24.75 50.5C24.75 52.3667 25.1167 54.0333 25.85 55.5C26.5833 56.9667 27.6333 58.1167 29 58.95C30.4 59.7833 32.0333 60.2 33.9 60.2C35.2333 60.2 36.4167 59.9667 37.45 59.5C38.4833 59 39.3 58.3167 39.9 57.45C40.5 56.55 40.8 55.5167 40.8 54.35L49.6 52.7C49.6 56.2333 48.9167 59.1833 47.55 61.55C46.1833 63.9167 44.3 65.6833 41.9 66.85C39.5333 68.0167 36.7833 68.6 33.65 68.6ZM33 55.4V48.4H49.6V53.55L44.35 55.4H33ZM75.6262 68L62.8262 33H72.0262L85.4262 68H75.6262ZM48.6762 68L62.0762 33H71.2762L58.4762 68H48.6762ZM54.9762 62.4V54.25H79.1762V62.4H54.9762Z" fill="white"/>
<path d="M16.15 30V24.7H14.17V23H19.97V24.7H18V30H16.15ZM23.1126 30L25.5726 23H27.5726L24.9026 30H23.1126ZM22.9026 30L20.2126 23H22.2126L24.6926 30H22.9026ZM28.2426 30V23H32.9326V24.7H30.0926V25.67H32.3926V27.32H30.0926V28.3H33.0026V30H28.2426ZM35.652 30V24.7H33.672V23H39.472V24.7H37.502V30H35.652Z" fill="white"/>
</svg>
